<?xml version="1.0" encoding="UTF-8" standalone="no"?>
<!DOCTYPE svg PUBLIC "-//W3C//DTD SVG 1.1//EN"
 "http://www.w3.org/Graphics/SVG/1.1/DTD/svg11.dtd">
<!-- Generated by graphviz version 2.47.0 (20210316.0004)
 -->
<!-- Title: dependencies Pages: 1 -->
<svg width="2720pt" height="298pt"
 viewBox="0.00 0.00 2720.00 298.00" xmlns="http://www.w3.org/2000/svg" xmlns:xlink="http://www.w3.org/1999/xlink">
<g id="graph0" class="graph" transform="scale(1 1) rotate(0) translate(4 294)">
<title>dependencies</title>
<polygon fill="white" stroke="transparent" points="-4,4 -4,-294 2716,-294 2716,4 -4,4"/>
<text text-anchor="start" x="1335.01" y="-42.4" font-family="Times-12" font-weight="bold" font-size="14.00">Legend</text>
<polygon fill="#ffffb3" stroke="transparent" points="1122,-10 1122,-30 1142,-30 1142,-10 1122,-10"/>
<text text-anchor="start" x="1145.63" y="-15.4" font-family="Times-12" font-size="14.00"> &#160;Declarations</text>
<polygon fill="#8dd3c7" stroke="transparent" points="1235,-10 1235,-30 1255,-30 1255,-10 1235,-10"/>
<text text-anchor="start" x="1258.73" y="-15.4" font-family="Times-12" font-size="14.00"> &#160;Module</text>
<polygon fill="#80b1d3" stroke="transparent" points="1321,-10 1321,-30 1341,-30 1341,-10 1321,-10"/>
<text text-anchor="start" x="1344.78" y="-15.4" font-family="Times-12" font-size="14.00"> &#160;Bootstrap</text>
<polygon fill="#fdb462" stroke="transparent" points="1418,-10 1418,-30 1438,-30 1438,-10 1418,-10"/>
<text text-anchor="start" x="1441.67" y="-15.4" font-family="Times-12" font-size="14.00"> &#160;Providers</text>
<polygon fill="#fb8072" stroke="transparent" points="1514,-10 1514,-30 1534,-30 1534,-10 1514,-10"/>
<text text-anchor="start" x="1537.73" y="-15.4" font-family="Times-12" font-size="14.00"> &#160;Exports</text>
<g id="clust1" class="cluster">
<title>cluster_AppModule</title>
<polygon fill="none" stroke="black" stroke-dasharray="1,5" points="8,-146 8,-274 1583,-274 1583,-146 8,-146"/>
</g>
<g id="clust3" class="cluster">
<title>cluster_AppModule_imports</title>
<polygon fill="none" stroke="black" points="154,-154 154,-206 1575,-206 1575,-154 154,-154"/>
</g>
<g id="clust6" class="cluster">
<title>cluster_AppModule_providers</title>
<polygon fill="none" stroke="black" points="16,-154 16,-206 146,-206 146,-154 16,-154"/>
</g>
<g id="clust7" class="cluster">
<title>cluster_AppointmentModule</title>
<polygon fill="none" stroke="black" stroke-dasharray="1,5" points="17,-70 17,-138 231,-138 231,-70 17,-70"/>
</g>
<g id="clust12" class="cluster">
<title>cluster_AppointmentModule_providers</title>
<polygon fill="none" stroke="black" points="25,-78 25,-130 223,-130 223,-78 25,-78"/>
</g>
<g id="clust13" class="cluster">
<title>cluster_AuthModule</title>
<polygon fill="none" stroke="black" stroke-dasharray="1,5" points="239,-70 239,-138 389,-138 389,-70 239,-70"/>
</g>
<g id="clust18" class="cluster">
<title>cluster_AuthModule_providers</title>
<polygon fill="none" stroke="black" points="247,-78 247,-130 381,-130 381,-78 247,-78"/>
</g>
<g id="clust19" class="cluster">
<title>cluster_DoctorModule</title>
<polygon fill="none" stroke="black" stroke-dasharray="1,5" points="397,-70 397,-138 563,-138 563,-70 397,-70"/>
</g>
<g id="clust24" class="cluster">
<title>cluster_DoctorModule_providers</title>
<polygon fill="none" stroke="black" points="405,-78 405,-130 555,-130 555,-78 405,-78"/>
</g>
<g id="clust25" class="cluster">
<title>cluster_InvoiceModule</title>
<polygon fill="none" stroke="black" stroke-dasharray="1,5" points="571,-70 571,-138 741,-138 741,-70 571,-70"/>
</g>
<g id="clust30" class="cluster">
<title>cluster_InvoiceModule_providers</title>
<polygon fill="none" stroke="black" points="579,-78 579,-130 733,-130 733,-78 579,-78"/>
</g>
<g id="clust31" class="cluster">
<title>cluster_MedicineModule</title>
<polygon fill="none" stroke="black" stroke-dasharray="1,5" points="749,-70 749,-138 933,-138 933,-70 749,-70"/>
</g>
<g id="clust36" class="cluster">
<title>cluster_MedicineModule_providers</title>
<polygon fill="none" stroke="black" points="757,-78 757,-130 925,-130 925,-78 757,-78"/>
</g>
<g id="clust37" class="cluster">
<title>cluster_OfficeModule</title>
<polygon fill="none" stroke="black" stroke-dasharray="1,5" points="941,-70 941,-138 1103,-138 1103,-70 941,-70"/>
</g>
<g id="clust42" class="cluster">
<title>cluster_OfficeModule_providers</title>
<polygon fill="none" stroke="black" points="949,-78 949,-130 1095,-130 1095,-78 949,-78"/>
</g>
<g id="clust43" class="cluster">
<title>cluster_PatientModule</title>
<polygon fill="none" stroke="black" stroke-dasharray="1,5" points="1111,-70 1111,-138 1277,-138 1277,-70 1111,-70"/>
</g>
<g id="clust48" class="cluster">
<title>cluster_PatientModule_providers</title>
<polygon fill="none" stroke="black" points="1119,-78 1119,-130 1269,-130 1269,-78 1119,-78"/>
</g>
<g id="clust49" class="cluster">
<title>cluster_PersonModule</title>
<polygon fill="none" stroke="black" stroke-dasharray="1,5" points="1591,-214 1591,-282 1879,-282 1879,-214 1591,-214"/>
</g>
<g id="clust52" class="cluster">
<title>cluster_PersonModule_exports</title>
<polygon fill="none" stroke="black" points="1755,-222 1755,-274 1871,-274 1871,-222 1755,-222"/>
</g>
<g id="clust54" class="cluster">
<title>cluster_PersonModule_providers</title>
<polygon fill="none" stroke="black" points="1599,-222 1599,-274 1747,-274 1747,-222 1599,-222"/>
</g>
<g id="clust55" class="cluster">
<title>cluster_PrescriptionDetailModule</title>
<polygon fill="none" stroke="black" stroke-dasharray="1,5" points="1285,-70 1285,-138 1537,-138 1537,-70 1285,-70"/>
</g>
<g id="clust60" class="cluster">
<title>cluster_PrescriptionDetailModule_providers</title>
<polygon fill="none" stroke="black" points="1293,-78 1293,-130 1529,-130 1529,-78 1293,-78"/>
</g>
<g id="clust61" class="cluster">
<title>cluster_PrescriptionModule</title>
<polygon fill="none" stroke="black" stroke-dasharray="1,5" points="1545,-70 1545,-138 1751,-138 1751,-70 1545,-70"/>
</g>
<g id="clust66" class="cluster">
<title>cluster_PrescriptionModule_providers</title>
<polygon fill="none" stroke="black" points="1553,-78 1553,-130 1743,-130 1743,-78 1553,-78"/>
</g>
<g id="clust73" class="cluster">
<title>cluster_TemplatePlaygroundModule</title>
<polygon fill="none" stroke="black" stroke-dasharray="1,5" points="1887,-70 1887,-282 2704,-282 2704,-70 1887,-70"/>
</g>
<g id="clust74" class="cluster">
<title>cluster_TemplatePlaygroundModule_declarations</title>
<polygon fill="none" stroke="black" points="2482,-78 2482,-130 2696,-130 2696,-78 2482,-78"/>
</g>
<g id="clust78" class="cluster">
<title>cluster_TemplatePlaygroundModule_bootstrap</title>
<polygon fill="none" stroke="black" points="2173,-222 2173,-274 2391,-274 2391,-222 2173,-222"/>
</g>
<g id="clust79" class="cluster">
<title>cluster_TemplatePlaygroundModule_providers</title>
<polygon fill="none" stroke="black" points="1895,-78 1895,-130 2474,-130 2474,-78 1895,-78"/>
</g>
<!-- AppointmentModule -->
<g id="node1" class="node">
<title>AppointmentModule</title>
<polygon fill="#8dd3c7" stroke="black" points="295.93,-198 292.93,-202 271.93,-202 268.93,-198 162.07,-198 162.07,-162 295.93,-162 295.93,-198"/>
<text text-anchor="middle" x="229" y="-175.8" font-family="Times,serif" font-size="14.00">AppointmentModule</text>
</g>
<!-- AppModule -->
<g id="node12" class="node">
<title>AppModule</title>
<polygon fill="#8dd3c7" stroke="black" points="819.66,-266 816.66,-270 795.66,-270 792.66,-266 736.34,-266 736.34,-230 819.66,-230 819.66,-266"/>
<text text-anchor="middle" x="778" y="-243.8" font-family="Times,serif" font-size="14.00">AppModule</text>
</g>
<!-- AppointmentModule&#45;&gt;AppModule -->
<g id="edge1" class="edge">
<title>AppointmentModule&#45;&gt;AppModule</title>
<path fill="none" stroke="black" d="M229,-198.29C229,-220.21 229,-254 229,-254 229,-254 726.29,-254 726.29,-254"/>
<polygon fill="black" stroke="black" points="726.29,-257.5 736.29,-254 726.29,-250.5 726.29,-257.5"/>
</g>
<!-- AuthModule -->
<g id="node2" class="node">
<title>AuthModule</title>
<polygon fill="#8dd3c7" stroke="black" points="400.55,-198 397.55,-202 376.55,-202 373.55,-198 313.45,-198 313.45,-162 400.55,-162 400.55,-198"/>
<text text-anchor="middle" x="357" y="-175.8" font-family="Times,serif" font-size="14.00">AuthModule</text>
</g>
<!-- AuthModule&#45;&gt;AppModule -->
<g id="edge2" class="edge">
<title>AuthModule&#45;&gt;AppModule</title>
<path fill="none" stroke="black" d="M357,-198.22C357,-218.37 357,-248 357,-248 357,-248 726.09,-248 726.09,-248"/>
<polygon fill="black" stroke="black" points="726.09,-251.5 736.09,-248 726.09,-244.5 726.09,-251.5"/>
</g>
<!-- DoctorModule -->
<g id="node3" class="node">
<title>DoctorModule</title>
<polygon fill="#8dd3c7" stroke="black" points="647.42,-198 644.42,-202 623.42,-202 620.42,-198 548.58,-198 548.58,-162 647.42,-162 647.42,-198"/>
<text text-anchor="middle" x="598" y="-175.8" font-family="Times,serif" font-size="14.00">DoctorModule</text>
</g>
<!-- DoctorModule&#45;&gt;AppModule -->
<g id="edge3" class="edge">
<title>DoctorModule&#45;&gt;AppModule</title>
<path fill="none" stroke="black" d="M598,-198.03C598,-214.4 598,-236 598,-236 598,-236 726.25,-236 726.25,-236"/>
<polygon fill="black" stroke="black" points="726.25,-239.5 736.25,-236 726.25,-232.5 726.25,-239.5"/>
</g>
<!-- InvoiceModule -->
<g id="node4" class="node">
<title>InvoiceModule</title>
<polygon fill="#8dd3c7" stroke="black" points="766.53,-198 763.53,-202 742.53,-202 739.53,-198 665.47,-198 665.47,-162 766.53,-162 766.53,-198"/>
<text text-anchor="middle" x="716" y="-175.8" font-family="Times,serif" font-size="14.00">InvoiceModule</text>
</g>
<!-- InvoiceModule&#45;&gt;AppModule -->
<g id="edge4" class="edge">
<title>InvoiceModule&#45;&gt;AppModule</title>
<path fill="none" stroke="black" d="M751.47,-198.22C751.47,-198.22 751.47,-219.73 751.47,-219.73"/>
<polygon fill="black" stroke="black" points="747.97,-219.73 751.47,-229.73 754.97,-219.73 747.97,-219.73"/>
</g>
<!-- MedicineModule -->
<g id="node5" class="node">
<title>MedicineModule</title>
<polygon fill="#8dd3c7" stroke="black" points="897.42,-198 894.42,-202 873.42,-202 870.42,-198 784.58,-198 784.58,-162 897.42,-162 897.42,-198"/>
<text text-anchor="middle" x="841" y="-175.8" font-family="Times,serif" font-size="14.00">MedicineModule</text>
</g>
<!-- MedicineModule&#45;&gt;AppModule -->
<g id="edge5" class="edge">
<title>MedicineModule&#45;&gt;AppModule</title>
<path fill="none" stroke="black" d="M802.31,-198.22C802.31,-198.22 802.31,-219.73 802.31,-219.73"/>
<polygon fill="black" stroke="black" points="798.81,-219.73 802.31,-229.73 805.81,-219.73 798.81,-219.73"/>
</g>
<!-- OfficeModule -->
<g id="node6" class="node">
<title>OfficeModule</title>
<polygon fill="#8dd3c7" stroke="black" points="1010.8,-198 1007.8,-202 986.8,-202 983.8,-198 915.2,-198 915.2,-162 1010.8,-162 1010.8,-198"/>
<text text-anchor="middle" x="963" y="-175.8" font-family="Times,serif" font-size="14.00">OfficeModule</text>
</g>
<!-- OfficeModule&#45;&gt;AppModule -->
<g id="edge6" class="edge">
<title>OfficeModule&#45;&gt;AppModule</title>
<path fill="none" stroke="black" d="M963,-198.03C963,-214.4 963,-236 963,-236 963,-236 829.98,-236 829.98,-236"/>
<polygon fill="black" stroke="black" points="829.98,-232.5 819.98,-236 829.98,-239.5 829.98,-232.5"/>
</g>
<!-- PatientModule -->
<g id="node7" class="node">
<title>PatientModule</title>
<polygon fill="#8dd3c7" stroke="black" points="1127.43,-198 1124.43,-202 1103.43,-202 1100.43,-198 1028.57,-198 1028.57,-162 1127.43,-162 1127.43,-198"/>
<text text-anchor="middle" x="1078" y="-175.8" font-family="Times,serif" font-size="14.00">PatientModule</text>
</g>
<!-- PatientModule&#45;&gt;AppModule -->
<g id="edge7" class="edge">
<title>PatientModule&#45;&gt;AppModule</title>
<path fill="none" stroke="black" d="M1078,-198.3C1078,-216.27 1078,-241 1078,-241 1078,-241 829.71,-241 829.71,-241"/>
<polygon fill="black" stroke="black" points="829.71,-237.5 819.71,-241 829.71,-244.5 829.71,-237.5"/>
</g>
<!-- PersonModule -->
<g id="node8" class="node">
<title>PersonModule</title>
<polygon fill="#8dd3c7" stroke="black" points="1566.65,-198 1563.65,-202 1542.65,-202 1539.65,-198 1469.35,-198 1469.35,-162 1566.65,-162 1566.65,-198"/>
<text text-anchor="middle" x="1518" y="-175.8" font-family="Times,serif" font-size="14.00">PersonModule</text>
</g>
<!-- PersonModule&#45;&gt;AppModule -->
<g id="edge8" class="edge">
<title>PersonModule&#45;&gt;AppModule</title>
<path fill="none" stroke="black" d="M1501.72,-198.01C1501.72,-220.49 1501.72,-256 1501.72,-256 1501.72,-256 829.77,-256 829.77,-256"/>
<polygon fill="black" stroke="black" points="829.77,-252.5 819.77,-256 829.77,-259.5 829.77,-252.5"/>
</g>
<!-- PersonService  -->
<g id="node21" class="node">
<title>PersonService </title>
<polygon fill="#fb8072" stroke="black" points="1862.58,-266 1763.42,-266 1763.42,-230 1862.58,-230 1862.58,-266"/>
<text text-anchor="middle" x="1813" y="-243.8" font-family="Times,serif" font-size="14.00">PersonService </text>
</g>
<!-- PersonModule&#45;&gt;PersonService  -->
<g id="edge20" class="edge">
<title>PersonModule&#45;&gt;PersonService </title>
<path fill="none" stroke="black" stroke-dasharray="5,2" d="M1566.71,-186C1650.5,-186 1813,-186 1813,-186 1813,-186 1813,-219.73 1813,-219.73"/>
<polygon fill="black" stroke="black" points="1809.5,-219.73 1813,-229.73 1816.5,-219.73 1809.5,-219.73"/>
</g>
<!-- PrescriptionDetailModule -->
<g id="node9" class="node">
<title>PrescriptionDetailModule</title>
<polygon fill="#8dd3c7" stroke="black" points="1306.91,-198 1303.91,-202 1282.91,-202 1279.91,-198 1145.09,-198 1145.09,-162 1306.91,-162 1306.91,-198"/>
<text text-anchor="middle" x="1226" y="-175.8" font-family="Times,serif" font-size="14.00">PrescriptionDetailModule</text>
</g>
<!-- PrescriptionDetailModule&#45;&gt;AppModule -->
<g id="edge9" class="edge">
<title>PrescriptionDetailModule&#45;&gt;AppModule</title>
<path fill="none" stroke="black" d="M1226,-198.03C1226,-217.58 1226,-246 1226,-246 1226,-246 829.74,-246 829.74,-246"/>
<polygon fill="black" stroke="black" points="829.74,-242.5 819.74,-246 829.74,-249.5 829.74,-242.5"/>
</g>
<!-- PrescriptionModule -->
<g id="node10" class="node">
<title>PrescriptionModule</title>
<polygon fill="#8dd3c7" stroke="black" points="1451.7,-198 1448.7,-202 1427.7,-202 1424.7,-198 1324.3,-198 1324.3,-162 1451.7,-162 1451.7,-198"/>
<text text-anchor="middle" x="1388" y="-175.8" font-family="Times,serif" font-size="14.00">PrescriptionModule</text>
</g>
<!-- PrescriptionModule&#45;&gt;AppModule -->
<g id="edge10" class="edge">
<title>PrescriptionModule&#45;&gt;AppModule</title>
<path fill="none" stroke="black" d="M1388,-198.28C1388,-219.32 1388,-251 1388,-251 1388,-251 829.93,-251 829.93,-251"/>
<polygon fill="black" stroke="black" points="829.93,-247.5 819.93,-251 829.93,-254.5 829.93,-247.5"/>
</g>
<!-- SpecialtyModule -->
<g id="node11" class="node">
<title>SpecialtyModule</title>
<polygon fill="#8dd3c7" stroke="black" points="530.65,-198 527.65,-202 506.65,-202 503.65,-198 419.35,-198 419.35,-162 530.65,-162 530.65,-198"/>
<text text-anchor="middle" x="475" y="-175.8" font-family="Times,serif" font-size="14.00">SpecialtyModule</text>
</g>
<!-- SpecialtyModule&#45;&gt;AppModule -->
<g id="edge11" class="edge">
<title>SpecialtyModule&#45;&gt;AppModule</title>
<path fill="none" stroke="black" d="M475,-198.27C475,-216.56 475,-242 475,-242 475,-242 726.19,-242 726.19,-242"/>
<polygon fill="black" stroke="black" points="726.19,-245.5 736.19,-242 726.19,-238.5 726.19,-245.5"/>
</g>
<!-- AppService -->
<g id="node13" class="node">
<title>AppService</title>
<ellipse fill="#fdb462" stroke="black" cx="81" cy="-180" rx="56.74" ry="18"/>
<text text-anchor="middle" x="81" y="-175.8" font-family="Times,serif" font-size="14.00">AppService</text>
</g>
<!-- AppService&#45;&gt;AppModule -->
<g id="edge12" class="edge">
<title>AppService&#45;&gt;AppModule</title>
<path fill="none" stroke="black" d="M81,-198.15C81,-221.76 81,-260 81,-260 81,-260 726.23,-260 726.23,-260"/>
<polygon fill="black" stroke="black" points="726.23,-263.5 736.23,-260 726.23,-256.5 726.23,-263.5"/>
</g>
<!-- AppointmentService -->
<g id="node14" class="node">
<title>AppointmentService</title>
<ellipse fill="#fdb462" stroke="black" cx="124" cy="-104" rx="90.91" ry="18"/>
<text text-anchor="middle" x="124" y="-99.8" font-family="Times,serif" font-size="14.00">AppointmentService</text>
</g>
<!-- AppointmentService&#45;&gt;AppointmentModule -->
<g id="edge13" class="edge">
<title>AppointmentService&#45;&gt;AppointmentModule</title>
<path fill="none" stroke="black" d="M188.62,-116.89C188.62,-116.89 188.62,-151.91 188.62,-151.91"/>
<polygon fill="black" stroke="black" points="185.12,-151.91 188.62,-161.91 192.12,-151.91 185.12,-151.91"/>
</g>
<!-- AuthService -->
<g id="node15" class="node">
<title>AuthService</title>
<ellipse fill="#fdb462" stroke="black" cx="314" cy="-104" rx="59.11" ry="18"/>
<text text-anchor="middle" x="314" y="-99.8" font-family="Times,serif" font-size="14.00">AuthService</text>
</g>
<!-- AuthService&#45;&gt;AuthModule -->
<g id="edge14" class="edge">
<title>AuthService&#45;&gt;AuthModule</title>
<path fill="none" stroke="black" d="M343.27,-119.75C343.27,-119.75 343.27,-151.87 343.27,-151.87"/>
<polygon fill="black" stroke="black" points="339.77,-151.87 343.27,-161.87 346.77,-151.87 339.77,-151.87"/>
</g>
<!-- DoctorService -->
<g id="node16" class="node">
<title>DoctorService</title>
<ellipse fill="#fdb462" stroke="black" cx="480" cy="-104" rx="66.61" ry="18"/>
<text text-anchor="middle" x="480" y="-99.8" font-family="Times,serif" font-size="14.00">DoctorService</text>
</g>
<!-- DoctorService&#45;&gt;DoctorModule -->
<g id="edge15" class="edge">
<title>DoctorService&#45;&gt;DoctorModule</title>
<path fill="none" stroke="black" d="M538.81,-112.72C538.81,-132.68 538.81,-180 538.81,-180 538.81,-180 539.79,-180 539.79,-180"/>
<polygon fill="black" stroke="black" points="538.59,-183.5 548.59,-180 538.59,-176.5 538.59,-183.5"/>
</g>
<!-- InvoiceService -->
<g id="node17" class="node">
<title>InvoiceService</title>
<ellipse fill="#fdb462" stroke="black" cx="656" cy="-104" rx="68.9" ry="18"/>
<text text-anchor="middle" x="656" y="-99.8" font-family="Times,serif" font-size="14.00">InvoiceService</text>
</g>
<!-- InvoiceService&#45;&gt;InvoiceModule -->
<g id="edge16" class="edge">
<title>InvoiceService&#45;&gt;InvoiceModule</title>
<path fill="none" stroke="black" d="M695.09,-119.02C695.09,-119.02 695.09,-151.8 695.09,-151.8"/>
<polygon fill="black" stroke="black" points="691.59,-151.8 695.09,-161.8 698.59,-151.8 691.59,-151.8"/>
</g>
<!-- MedicineService -->
<g id="node18" class="node">
<title>MedicineService</title>
<ellipse fill="#fdb462" stroke="black" cx="841" cy="-104" rx="76.42" ry="18"/>
<text text-anchor="middle" x="841" y="-99.8" font-family="Times,serif" font-size="14.00">MedicineService</text>
</g>
<!-- MedicineService&#45;&gt;MedicineModule -->
<g id="edge17" class="edge">
<title>MedicineService&#45;&gt;MedicineModule</title>
<path fill="none" stroke="black" d="M841,-122.01C841,-122.01 841,-151.85 841,-151.85"/>
<polygon fill="black" stroke="black" points="837.5,-151.85 841,-161.85 844.5,-151.85 837.5,-151.85"/>
</g>
<!-- OfficeService -->
<g id="node19" class="node">
<title>OfficeService</title>
<ellipse fill="#fdb462" stroke="black" cx="1022" cy="-104" rx="64.8" ry="18"/>
<text text-anchor="middle" x="1022" y="-99.8" font-family="Times,serif" font-size="14.00">OfficeService</text>
</g>
<!-- OfficeService&#45;&gt;OfficeModule -->
<g id="edge18" class="edge">
<title>OfficeService&#45;&gt;OfficeModule</title>
<path fill="none" stroke="black" d="M984,-118.65C984,-118.65 984,-151.9 984,-151.9"/>
<polygon fill="black" stroke="black" points="980.5,-151.9 984,-161.9 987.5,-151.9 980.5,-151.9"/>
</g>
<!-- PatientService -->
<g id="node20" class="node">
<title>PatientService</title>
<ellipse fill="#fdb462" stroke="black" cx="1194" cy="-104" rx="66.63" ry="18"/>
<text text-anchor="middle" x="1194" y="-99.8" font-family="Times,serif" font-size="14.00">PatientService</text>
</g>
<!-- PatientService&#45;&gt;PatientModule -->
<g id="edge19" class="edge">
<title>PatientService&#45;&gt;PatientModule</title>
<path fill="none" stroke="black" d="M1136.26,-113.32C1136.26,-133.61 1136.26,-180 1136.26,-180 1136.26,-180 1135.4,-180 1135.4,-180"/>
<polygon fill="black" stroke="black" points="1137.66,-176.5 1127.66,-180 1137.66,-183.5 1137.66,-176.5"/>
</g>
<!-- PersonService -->
<g id="node22" class="node">
<title>PersonService</title>
<ellipse fill="#fdb462" stroke="black" cx="1673" cy="-248" rx="66.05" ry="18"/>
<text text-anchor="middle" x="1673" y="-243.8" font-family="Times,serif" font-size="14.00">PersonService</text>
</g>
<!-- PersonService&#45;&gt;PersonModule -->
<g id="edge21" class="edge">
<title>PersonService&#45;&gt;PersonModule</title>
<path fill="none" stroke="black" d="M1626.81,-261C1586.45,-261 1534.28,-261 1534.28,-261 1534.28,-261 1534.28,-208.38 1534.28,-208.38"/>
<polygon fill="black" stroke="black" points="1537.78,-208.38 1534.28,-198.38 1530.78,-208.38 1537.78,-208.38"/>
</g>
<!-- PrescriptionDetailService -->
<g id="node23" class="node">
<title>PrescriptionDetailService</title>
<ellipse fill="#fdb462" stroke="black" cx="1411" cy="-104" rx="110" ry="18"/>
<text text-anchor="middle" x="1411" y="-99.8" font-family="Times,serif" font-size="14.00">PrescriptionDetailService</text>
</g>
<!-- PrescriptionDetailService&#45;&gt;PrescriptionDetailModule -->
<g id="edge22" class="edge">
<title>PrescriptionDetailService&#45;&gt;PrescriptionDetailModule</title>
<path fill="none" stroke="black" d="M1315.55,-113.02C1315.55,-133.15 1315.55,-180 1315.55,-180 1315.55,-180 1314.69,-180 1314.69,-180"/>
<polygon fill="black" stroke="black" points="1316.97,-176.5 1306.97,-180 1316.97,-183.5 1316.97,-176.5"/>
</g>
<!-- PrescriptionService -->
<g id="node24" class="node">
<title>PrescriptionService</title>
<ellipse fill="#fdb462" stroke="black" cx="1648" cy="-104" rx="86.81" ry="18"/>
<text text-anchor="middle" x="1648" y="-99.8" font-family="Times,serif" font-size="14.00">PrescriptionService</text>
</g>
<!-- PrescriptionService&#45;&gt;PrescriptionModule -->
<g id="edge23" class="edge">
<title>PrescriptionService&#45;&gt;PrescriptionModule</title>
<path fill="none" stroke="black" d="M1586.78,-116.87C1586.78,-127.89 1586.78,-142 1586.78,-142 1586.78,-142 1388,-142 1388,-142 1388,-142 1388,-151.89 1388,-151.89"/>
<polygon fill="black" stroke="black" points="1384.5,-151.89 1388,-161.89 1391.5,-151.89 1384.5,-151.89"/>
</g>
<!-- TemplatePlaygroundComponent -->
<g id="node25" class="node">
<title>TemplatePlaygroundComponent</title>
<polygon fill="#ffffb3" stroke="black" points="2688.25,-122 2489.75,-122 2489.75,-86 2688.25,-86 2688.25,-122"/>
<text text-anchor="middle" x="2589" y="-99.8" font-family="Times,serif" font-size="14.00">TemplatePlaygroundComponent</text>
</g>
<!-- TemplatePlaygroundModule -->
<g id="node26" class="node">
<title>TemplatePlaygroundModule</title>
<polygon fill="#8dd3c7" stroke="black" points="2370.47,-198 2367.47,-202 2346.47,-202 2343.47,-198 2193.53,-198 2193.53,-162 2370.47,-162 2370.47,-198"/>
<text text-anchor="middle" x="2282" y="-175.8" font-family="Times,serif" font-size="14.00">TemplatePlaygroundModule</text>
</g>
<!-- TemplatePlaygroundComponent&#45;&gt;TemplatePlaygroundModule -->
<g id="edge24" class="edge">
<title>TemplatePlaygroundComponent&#45;&gt;TemplatePlaygroundModule</title>
<path fill="none" stroke="black" d="M2589,-122.01C2589,-144.49 2589,-180 2589,-180 2589,-180 2380.8,-180 2380.8,-180"/>
<polygon fill="black" stroke="black" points="2380.8,-176.5 2370.8,-180 2380.8,-183.5 2380.8,-176.5"/>
</g>
<!-- TemplatePlaygroundComponent  -->
<g id="node27" class="node">
<title>TemplatePlaygroundComponent </title>
<polygon fill="#80b1d3" stroke="black" points="2383.25,-266 2180.75,-266 2180.75,-230 2383.25,-230 2383.25,-266"/>
<text text-anchor="middle" x="2282" y="-243.8" font-family="Times,serif" font-size="14.00">TemplatePlaygroundComponent </text>
</g>
<!-- TemplatePlaygroundModule&#45;&gt;TemplatePlaygroundComponent  -->
<g id="edge25" class="edge">
<title>TemplatePlaygroundModule&#45;&gt;TemplatePlaygroundComponent </title>
<path fill="none" stroke="black" stroke-dasharray="1,5" d="M2282,-198.22C2282,-198.22 2282,-219.73 2282,-219.73"/>
<polygon fill="black" stroke="black" points="2278.5,-219.73 2282,-229.73 2285.5,-219.73 2278.5,-219.73"/>
</g>
<!-- HbsRenderService -->
<g id="node28" class="node">
<title>HbsRenderService</title>
<ellipse fill="#fdb462" stroke="black" cx="2383" cy="-104" rx="83.37" ry="18"/>
<text text-anchor="middle" x="2383" y="-99.8" font-family="Times,serif" font-size="14.00">HbsRenderService</text>
</g>
<!-- HbsRenderService&#45;&gt;TemplatePlaygroundModule -->
<g id="edge26" class="edge">
<title>HbsRenderService&#45;&gt;TemplatePlaygroundModule</title>
<path fill="none" stroke="black" d="M2335.03,-119.02C2335.03,-119.02 2335.03,-151.8 2335.03,-151.8"/>
<polygon fill="black" stroke="black" points="2331.53,-151.8 2335.03,-161.8 2338.53,-151.8 2331.53,-151.8"/>
</g>
<!-- TemplateEditorService -->
<g id="node29" class="node">
<title>TemplateEditorService</title>
<ellipse fill="#fdb462" stroke="black" cx="2181" cy="-104" rx="100.7" ry="18"/>
<text text-anchor="middle" x="2181" y="-99.8" font-family="Times,serif" font-size="14.00">TemplateEditorService</text>
</g>
<!-- TemplateEditorService&#45;&gt;TemplatePlaygroundModule -->
<g id="edge27" class="edge">
<title>TemplateEditorService&#45;&gt;TemplatePlaygroundModule</title>
<path fill="none" stroke="black" d="M2237.56,-119.02C2237.56,-119.02 2237.56,-151.8 2237.56,-151.8"/>
<polygon fill="black" stroke="black" points="2234.06,-151.8 2237.56,-161.8 2241.06,-151.8 2234.06,-151.8"/>
</g>
<!-- ZipExportService -->
<g id="node30" class="node">
<title>ZipExportService</title>
<ellipse fill="#fdb462" stroke="black" cx="1983" cy="-104" rx="79.87" ry="18"/>
<text text-anchor="middle" x="1983" y="-99.8" font-family="Times,serif" font-size="14.00">ZipExportService</text>
</g>
<!-- ZipExportService&#45;&gt;TemplatePlaygroundModule -->
<g id="edge28" class="edge">
<title>ZipExportService&#45;&gt;TemplatePlaygroundModule</title>
<path fill="none" stroke="black" d="M1983,-122.03C1983,-142.77 1983,-174 1983,-174 1983,-174 2183.5,-174 2183.5,-174"/>
<polygon fill="black" stroke="black" points="2183.5,-177.5 2193.5,-174 2183.5,-170.5 2183.5,-177.5"/>
</g>
</g>
</svg>
